<svg width="300" height="100" viewBox="0 0 300 100" fill="none" xmlns="http://www.w3.org/2000/svg">
<path d="M71.6464 49.6464C71.4512 49.8417 71.4512 50.1583 71.6464 50.3536L74.8284 53.5355C75.0237 53.7308 75.3403 53.7308 75.5355 53.5355C75.7308 53.3403 75.7308 53.0237 75.5355 52.8284L72.7071 50L75.5355 47.1716C75.7308 46.9763 75.7308 46.6597 75.5355 46.4645C75.3403 46.2692 75.0237 46.2692 74.8284 46.4645L71.6464 49.6464ZM235.354 50.3536C235.549 50.1583 235.549 49.8417 235.354 49.6464L232.172 46.4645C231.976 46.2692 231.66 46.2692 231.464 46.4645C231.269 46.6597 231.269 46.9763 231.464 47.1716L234.293 50L231.464 52.8284C231.269 53.0237 231.269 53.3403 231.464 53.5355C231.66 53.7308 231.976 53.7308 232.172 53.5355L235.354 50.3536ZM72 50.5H235V49.5H72V50.5Z" fill="#084F5D"/>
<line x1="149.875" y1="44.6953" x2="142.513" y2="55.4097" stroke="#084F5D" stroke-linecap="round"/>
<line x1="158.875" y1="44.6953" x2="151.513" y2="55.4097" stroke="#084F5D" stroke-linecap="round"/>
</svg>
