<svg width="400" height="130" viewBox="0 0 400 130" fill="none" xmlns="http://www.w3.org/2000/svg">
<rect width="400" height="130" fill="white"/>
<circle cx="46" cy="28" r="3" fill="#A3008D"/>
<circle cx="190" cy="29" r="3" fill="#A3008D"/>
<circle cx="272" cy="30" r="3" fill="#A3008D"/>
<circle cx="336" cy="35" r="3" fill="#A3008D"/>
<circle cx="348" cy="79" r="3" fill="#A3008D"/>
<circle cx="256" cy="99" r="3" fill="#A3008D"/>
<circle cx="53" cy="108" r="3" fill="#A3008D"/>
<circle cx="16" cy="38" r="3" fill="#008080"/>
<circle cx="87" cy="17" r="3" fill="#008080"/>
<circle cx="174" cy="105" r="3" fill="#008080"/>
<circle cx="163" cy="23" r="3" fill="#008080"/>
<circle cx="323" cy="59" r="3" fill="#008080"/>
<circle cx="270" cy="117" r="3" fill="#008080"/>
<circle cx="376" cy="111" r="3" fill="#008080"/>
<circle cx="297" cy="11" r="3" fill="#008080"/>
<circle cx="85" cy="119" r="3" fill="#008080"/>
<circle cx="14" cy="89" r="3" fill="#008080"/>
<circle cx="39" cy="67" r="3" fill="#B20101"/>
<circle cx="104" cy="44" r="3" fill="#B20101"/>
<circle cx="111" cy="111" r="3" fill="#B20101"/>
<circle cx="227" cy="17" r="3" fill="#B20101"/>
<circle cx="324" cy="110" r="3" fill="#B20101"/>
<circle cx="375" cy="48" r="3" fill="#B20101"/>
<circle cx="129" cy="17" r="3" fill="#B20101"/>
<circle cx="77" cy="90" r="3" fill="#B20101"/>
<circle cx="214" cy="124" r="3" fill="#B20101"/>
<circle cx="19" cy="10" r="3" fill="#D73C1D"/>
<circle cx="132" cy="99" r="3" fill="#D73C1D"/>
<circle cx="385" cy="17" r="3" fill="#D73C1D"/>
<circle cx="306" cy="97" r="3" fill="#D73C1D"/>
<circle cx="200" cy="109" r="3" fill="#D73C1D"/>
<circle cx="19" cy="114" r="3" fill="#9F2B68"/>
<circle cx="55" cy="88" r="3" fill="#9F2B68"/>
<circle cx="161" cy="37" r="3" fill="#9F2B68"/>
<circle cx="239" cy="41" r="3" fill="#9F2B68"/>
<circle cx="304" cy="38" r="3" fill="#9F2B68"/>
<circle cx="282" cy="93" r="3" fill="#9F2B68"/>
<circle cx="378" cy="77" r="3" fill="#9F2B68"/>
<circle cx="351" cy="112" r="3" fill="#9F2B68"/>
<circle cx="323" cy="15" r="3" fill="#9F2B68"/>
<circle cx="83" cy="40" r="3" fill="#E30B5C"/>
<circle cx="150" cy="121" r="3" fill="#E30B5C"/>
<circle cx="112" cy="27" r="3" fill="#E30B5C"/>
<circle cx="194" cy="11" r="3" fill="#E30B5C"/>
<circle cx="258" cy="25" r="3" fill="#E30B5C"/>
<circle cx="237" cy="110" r="3" fill="#E30B5C"/>
<circle cx="293" cy="114" r="3" fill="#E30B5C"/>
<circle cx="352" cy="52" r="3" fill="#E30B5C"/>
<circle cx="345" cy="21" r="3" fill="#E30B5C"/>
<circle cx="334" cy="88" r="3" fill="#E30B5C"/>
<circle cx="103" cy="91" r="3" fill="#E30B5C"/>
<circle cx="49" cy="48" r="3" fill="#D2042D"/>
<circle cx="73" cy="22" r="3" fill="#D2042D"/>
<circle cx="50" cy="12" r="3" fill="#D2042D"/>
<circle cx="20" cy="60" r="3" fill="#D2042D"/>
<circle cx="367" cy="30" r="3" fill="#D2042D"/>
<circle cx="366" cy="99" r="3" fill="#D2042D"/>
<circle cx="177" cy="115" r="3" fill="#D2042D"/>
<circle cx="110" cy="14" r="3" fill="#D2042D"/>
<circle cx="193" cy="47" r="3" fill="#D2042D"/>
<circle cx="173" cy="50" r="3" fill="#558000"/>
<circle cx="226" cy="36" r="3" fill="#558000"/>
<circle cx="320" cy="85" r="3" fill="#558000"/>
<circle cx="37" cy="92" r="3" fill="#558000"/>
<circle cx="144" cy="34" r="3" fill="#558000"/>
<circle cx="206" cy="27" r="3" fill="#084F5D"/>
<circle cx="190" cy="99" r="3" fill="#084F5D"/>
<circle cx="270" cy="13" r="3" fill="#084F5D"/>
<circle cx="295" cy="34" r="3" fill="#084F5D"/>
<circle cx="365" cy="13" r="3" fill="#084F5D"/>
<circle cx="386" cy="27" r="3" fill="#084F5D"/>
<circle cx="389" cy="99" r="3" fill="#084F5D"/>
<circle cx="363" cy="65" r="3" fill="#084F5D"/>
<circle cx="82" cy="106" r="3" fill="#084F5D"/>
<circle cx="147" cy="12" r="3" fill="#084F5D"/>
<circle cx="130" cy="121" r="3" fill="#084F5D"/>
<circle cx="248" cy="17" r="3" fill="#084F5D"/>
<circle cx="248" cy="124" r="3" fill="#084F5D"/>
<circle cx="44" cy="123" r="3" fill="#084F5D"/>
<circle cx="57" cy="72" r="3" fill="#9F2B68"/>
<circle cx="23" cy="24" r="3" fill="#9F2B68"/>
<circle cx="321" cy="44" r="3" fill="#9F2B68"/>
<circle cx="338" cy="73" r="3" fill="#9F2B68"/>
<circle cx="337" cy="122" r="3" fill="#9F2B68"/>
<circle cx="392" cy="62" r="3" fill="#9F2B68"/>
<circle cx="274" cy="50" r="3" fill="#B20101"/>
<circle cx="147" cy="94" r="3" fill="#B20101"/>
<circle cx="120" cy="90" r="3" fill="#B20101"/>
<circle cx="72" cy="11" r="3" fill="#B20101"/>
<circle cx="279" cy="21" r="3" fill="#B20101"/>
<circle cx="225" cy="104" r="3" fill="#B20101"/>
<circle cx="124" cy="42" r="3" fill="#B20101"/>
<circle cx="64" cy="40" r="3" fill="#084F5D"/>
<circle cx="181" cy="17" r="3" fill="#084F5D"/>
<circle cx="261" cy="44" r="3" fill="#084F5D"/>
<circle cx="114" cy="54" r="3" fill="#084F5D"/>
<circle cx="153" cy="109" r="3" fill="#084F5D"/>
<circle cx="27" cy="78" r="3" fill="#084F5D"/>
<circle cx="38" cy="44" r="3" fill="#084F5D"/>
<circle cx="34" cy="113" r="3" fill="#084F5D"/>
<circle cx="67" cy="110" r="3" fill="#B20101"/>
<circle cx="99" cy="106" r="3" fill="#B20101"/>
<circle cx="26" cy="101" r="3" fill="#B20101"/>
<circle cx="167" cy="11" r="3" fill="#E30B5C"/>
<circle cx="214" cy="14" r="3" fill="#E30B5C"/>
<circle cx="282" cy="109" r="3" fill="#E30B5C"/>
<circle cx="313" cy="125" r="3" fill="#E30B5C"/>
<circle cx="344" cy="105" r="3" fill="#E30B5C"/>
<circle cx="374" cy="125" r="3" fill="#E30B5C"/>
<circle cx="356" cy="94" r="3" fill="#558000"/>
<circle cx="341" cy="53" r="3" fill="#558000"/>
<circle cx="314" cy="28" r="3" fill="#558000"/>
<circle cx="10" cy="71" r="3" fill="#558000"/>
<circle cx="9" cy="25" r="3" fill="#558000"/>
<circle cx="104" cy="123" r="3" fill="#558000"/>
<circle cx="99" cy="33" r="3" fill="#558000"/>
<circle cx="194" cy="121" r="3" fill="#558000"/>
<circle cx="138" cy="113" r="3" fill="#558000"/>
<circle cx="134" cy="33" r="3" fill="#558000"/>
<circle cx="257" cy="112" r="3" fill="#558000"/>
<circle cx="225" cy="119" r="3" fill="#558000"/>
<circle cx="208" cy="96" r="3" fill="#558000"/>
<circle cx="13" cy="53" r="3" fill="#9F2B68"/>
<circle cx="38" cy="19" r="3" fill="#9F2B68"/>
<circle cx="169" cy="123" r="3" fill="#9F2B68"/>
<circle cx="66" cy="123" r="3" fill="#9F2B68"/>
<circle cx="352" cy="37" r="3" fill="#9F2B68"/>
<circle cx="392" cy="45" r="3" fill="#9F2B68"/>
<circle cx="12" cy="123" r="3" fill="#D2042D"/>
<circle cx="241" cy="31" r="3" fill="#D2042D"/>
<circle cx="368" cy="83" r="3" fill="#D2042D"/>
<circle cx="72" cy="58" r="3" fill="#A3008D"/>
<circle cx="91" cy="77" r="3" fill="#A3008D"/>
<circle cx="131" cy="87" r="3" fill="#A3008D"/>
<circle cx="289" cy="60" r="3" fill="#A3008D"/>
<circle cx="298" cy="88" r="3" fill="#A3008D"/>
<circle cx="94" cy="64" r="3" fill="#B20101"/>
<circle cx="124" cy="75" r="3" fill="#B20101"/>
<circle cx="290" cy="78" r="3" fill="#B20101"/>
<circle cx="310" cy="75" r="3" fill="#B20101"/>
<circle cx="303" cy="54" r="3" fill="#B20101"/>
<circle cx="278" cy="75" r="3" fill="#B20101"/>
<circle cx="308" cy="69" r="3" fill="#B20101"/>
<circle cx="112" cy="75" r="3" fill="#B20101"/>
<circle cx="80" cy="75" r="3" fill="#B20101"/>
<circle cx="92" cy="54" r="3" fill="#B20101"/>
<circle cx="129" cy="64" r="3" fill="#558000"/>
<circle cx="92" cy="91" r="3" fill="#558000"/>
<circle cx="58" cy="64" r="3" fill="#558000"/>
<circle cx="278" cy="67" r="3" fill="#558000"/>
<circle cx="147" cy="50" r="3" fill="#008080"/>
<circle cx="184" cy="40" r="3" fill="#084F5D"/>
<circle cx="240" cy="98" r="3" fill="#008080"/>
<g filter="url(#filter0_d_102_468)">
<path d="M144.848 86.832C141.947 86.832 139.707 86.512 138.128 85.872C136.549 85.232 135.461 84.336 134.864 83.184C134.267 82.032 133.968 80.6667 133.968 79.088C133.968 78.32 134.032 77.4667 134.16 76.528C134.288 75.5467 134.437 74.4373 134.608 73.2C135.376 68.5067 135.76 64.3467 135.76 60.72C135.76 58.3307 135.653 56.304 135.44 54.64C135.269 52.9333 134.715 51.312 133.776 49.776C133.605 49.52 133.456 49.264 133.328 49.008C133.2 48.7093 133.136 48.4747 133.136 48.304C133.136 47.792 133.435 47.2587 134.032 46.704C134.629 46.1493 135.355 45.68 136.208 45.296C137.061 44.912 137.872 44.72 138.64 44.72C140.091 44.72 140.987 45.296 141.328 46.448C141.712 47.6 141.904 49.2427 141.904 51.376C141.904 52.1867 141.819 53.488 141.648 55.28C141.477 57.0293 141.221 59.2693 140.88 62C140.539 64.6453 140.283 66.928 140.112 68.848C139.941 70.768 139.856 72.304 139.856 73.456C139.856 75.1627 140.048 76.464 140.432 77.36C140.859 78.2133 141.541 78.8107 142.48 79.152C143.419 79.4933 144.741 79.664 146.448 79.664C148.283 79.664 150.032 79.5147 151.696 79.216C153.36 78.8747 154.981 78.3627 156.56 77.68C156.773 77.5947 156.965 77.5307 157.136 77.488C157.307 77.4453 157.456 77.424 157.584 77.424C157.968 77.424 158.331 77.6587 158.672 78.128C159.013 78.5973 159.184 79.2587 159.184 80.112C159.184 81.9893 158.16 83.4613 156.112 84.528C153.381 86.064 149.627 86.832 144.848 86.832ZM161.099 103.664C159.35 103.664 157.856 103.195 156.619 102.256C155.339 101.317 154.699 100.059 154.699 98.48C154.699 97.2427 155.083 96.176 155.851 95.28C156.576 94.4267 157.494 94 158.603 94C159.115 94 159.478 94.0853 159.691 94.256C159.904 94.4267 160.075 94.6187 160.203 94.832C160.544 95.3867 160.928 95.856 161.355 96.24C161.824 96.6667 162.443 96.88 163.211 96.88C164.235 96.88 165.216 96.5173 166.155 95.792C167.136 95.0667 168.032 94.2347 168.843 93.296C169.568 92.4853 170.443 91.312 171.467 89.776C172.491 88.2827 173.515 86.576 174.539 84.656C173.6 85.4667 172.726 86.0427 171.915 86.384C171.104 86.768 170.336 86.96 169.611 86.96C168.715 86.96 167.84 86.64 166.987 86C166.134 85.3173 165.6 84.0587 165.387 82.224C165.259 80.816 165.003 79.2587 164.619 77.552C164.278 75.8453 163.83 74.2027 163.275 72.624C162.763 71.0027 162.123 69.6373 161.355 68.528C161.056 68.016 160.715 67.632 160.331 67.376C159.947 67.12 159.392 66.9493 158.667 66.864C158.155 66.8213 157.814 66.672 157.643 66.416C157.515 66.16 157.451 65.7547 157.451 65.2C157.451 63.664 157.878 62.4267 158.731 61.488C159.584 60.5493 160.736 60.08 162.187 60.08C163.936 60.08 165.195 60.7627 165.963 62.128C166.731 63.4507 167.392 65.072 167.947 66.992C168.16 67.76 168.374 68.784 168.587 70.064C168.843 71.3013 169.056 72.6453 169.227 74.096C169.44 75.5467 169.59 76.9333 169.675 78.256C169.718 79.1947 170.251 79.664 171.275 79.664C172.64 79.664 173.942 79.2373 175.179 78.384C176.416 77.5307 177.419 76.4213 178.187 75.056C178.998 73.6907 179.403 72.2613 179.403 70.768C179.403 69.9147 179.296 69.1467 179.083 68.464C178.87 67.7813 178.507 67.184 177.995 66.672C177.568 66.16 177.227 65.7547 176.971 65.456C176.715 65.1147 176.587 64.7307 176.587 64.304C176.587 63.5787 176.928 62.896 177.611 62.256C178.294 61.616 179.104 61.0827 180.043 60.656C181.024 60.2293 181.878 60.016 182.603 60.016C183.883 60.016 184.736 60.6347 185.163 61.872C185.59 63.0667 185.696 64.3893 185.483 65.84C185.227 67.8453 184.715 70.2133 183.947 72.944C183.179 75.6747 182.176 78.5333 180.939 81.52C179.744 84.5067 178.358 87.3867 176.779 90.16C175.243 92.976 173.6 95.4293 171.851 97.52C170.358 99.3547 168.694 100.827 166.859 101.936C165.024 103.088 163.104 103.664 161.099 103.664ZM198.245 86.832C195.685 86.832 193.658 85.9787 192.165 84.272C190.714 82.5653 189.989 80.24 189.989 77.296C189.989 75.12 190.33 72.9867 191.013 70.896C191.738 68.8053 192.741 66.928 194.021 65.264C195.301 63.6 196.794 62.2773 198.501 61.296C200.207 60.3147 202.063 59.824 204.069 59.824C205.349 59.824 206.479 60.016 207.461 60.4C208.485 60.784 209.381 61.2747 210.149 61.872C210.106 58.9707 209.957 56.368 209.701 54.064C209.445 51.76 208.826 49.6267 207.845 47.664C207.674 47.3227 207.525 47.024 207.397 46.768C207.311 46.4693 207.269 46.192 207.269 45.936C207.269 45.3387 207.503 44.784 207.973 44.272C208.485 43.76 209.103 43.3333 209.829 42.992C210.554 42.6507 211.237 42.48 211.877 42.48C213.029 42.48 213.882 42.992 214.437 44.016C215.034 44.9973 215.418 46.3627 215.589 48.112C215.759 49.8187 215.845 51.7813 215.845 54C215.845 57.2427 215.695 60.1653 215.397 62.768C215.098 65.3707 214.821 67.6533 214.565 69.616C214.394 70.896 214.245 72.0053 214.117 72.944C213.989 73.8827 213.925 74.6507 213.925 75.248C213.925 78.2773 215.226 80.0693 217.829 80.624C218.511 80.752 218.853 81.2 218.853 81.968C218.853 82.4373 218.703 83.0347 218.405 83.76C218.149 84.4853 217.658 85.1467 216.933 85.744C216.207 86.2987 215.162 86.576 213.797 86.576C211.962 86.576 210.725 85.9573 210.085 84.72C209.445 83.4827 209.125 81.6053 209.125 79.088C207.93 81.264 206.415 83.0987 204.581 84.592C202.746 86.0853 200.634 86.832 198.245 86.832ZM200.229 79.984C201.423 79.984 202.618 79.6 203.812 78.832C205.007 78.064 206.074 77.0187 207.013 75.696C207.567 74.8853 208.058 73.968 208.485 72.944C208.954 71.8773 209.381 70.8107 209.765 69.744C207.589 67.7813 205.178 66.8 202.533 66.8C200.229 66.8 198.394 67.504 197.029 68.912C195.663 70.2773 194.981 71.984 194.981 74.032C194.981 75.7813 195.493 77.2107 196.517 78.32C197.541 79.4293 198.778 79.984 200.229 79.984ZM228.371 54.192C227.176 54.1493 226.216 53.7867 225.491 53.104C224.765 52.4213 224.403 51.4613 224.403 50.224C224.445 48.9013 224.893 47.8347 225.747 47.024C226.6 46.1707 227.688 45.7653 229.01 45.808C230.248 45.8507 231.208 46.2133 231.891 46.896C232.616 47.5787 232.957 48.5387 232.915 49.776C232.872 51.056 232.445 52.1227 231.635 52.976C230.824 53.7867 229.736 54.192 228.371 54.192ZM228.435 86.64C227.155 86.64 226.152 86.2987 225.427 85.616C224.701 84.8907 224.339 83.6747 224.339 81.968C224.339 80.9867 224.424 80.0267 224.595 79.088C224.808 78.1493 225.043 77.232 225.299 76.336C225.597 75.3973 225.832 74.4373 226.003 73.456C226.216 72.4747 226.323 71.4293 226.323 70.32C226.323 69.552 226.216 68.8267 226.003 68.144C225.789 67.4187 225.32 66.8853 224.595 66.544C224.04 66.2453 223.549 65.9467 223.123 65.648C222.739 65.3067 222.547 64.88 222.547 64.368C222.547 63.7707 222.824 63.1307 223.379 62.448C223.933 61.7653 224.659 61.1893 225.555 60.72C226.493 60.208 227.453 59.952 228.435 59.952C229.501 59.952 230.269 60.2293 230.739 60.784C231.251 61.3387 231.592 62.0427 231.763 62.896C231.933 63.7493 232.019 64.624 232.019 65.52C232.019 66.8853 231.912 68.2293 231.699 69.552C231.485 70.832 231.272 72.0267 231.059 73.136C230.888 73.9467 230.76 74.6933 230.675 75.376C230.589 76.0587 230.547 76.6987 230.547 77.296C230.547 78.3627 230.803 79.1733 231.315 79.728C231.827 80.24 232.552 80.7307 233.491 81.2C233.875 81.4133 234.067 81.7333 234.067 82.16C234.067 82.5013 233.896 83.0347 233.555 83.76C233.213 84.4853 232.616 85.1467 231.763 85.744C230.952 86.3413 229.843 86.64 228.435 86.64ZM246.806 86.832C244.246 86.832 242.176 86.0427 240.598 84.464C239.062 82.8427 238.294 80.5387 238.294 77.552C238.294 75.4187 238.699 73.3067 239.51 71.216C240.363 69.0827 241.579 67.1627 243.158 65.456C244.736 63.7493 246.635 62.384 248.854 61.36C251.072 60.336 253.568 59.824 256.342 59.824C258.902 59.824 261.078 60.272 262.87 61.168C264.704 62.0213 265.622 63.1947 265.622 64.688C265.622 65.072 265.579 65.584 265.494 66.224C265.408 66.8213 265.302 67.312 265.174 67.696C265.046 68.0373 264.854 68.3573 264.598 68.656C264.384 68.912 264.086 69.04 263.702 69.04C263.531 69.04 263.211 68.976 262.742 68.848C262.571 69.744 262.443 70.6187 262.358 71.472C262.272 72.3253 262.23 73.1787 262.23 74.032C262.23 75.6533 262.464 77.104 262.934 78.384C263.446 79.6213 264.427 80.3893 265.878 80.688C266.262 80.7733 266.56 80.9013 266.774 81.072C267.03 81.2427 267.158 81.6053 267.158 82.16C267.158 82.6293 267.03 83.2267 266.774 83.952C266.56 84.6773 266.112 85.3387 265.43 85.936C264.79 86.4907 263.851 86.768 262.614 86.768C260.95 86.768 259.67 86.1707 258.774 84.976C257.878 83.7387 257.43 81.9893 257.43 79.728C256.278 81.8187 254.806 83.5253 253.014 84.848C251.264 86.1707 249.195 86.832 246.806 86.832ZM248.854 80.176C250.56 80.176 252.054 79.6427 253.333 78.576C254.656 77.5093 255.68 76.1653 256.406 74.544C256.875 73.52 257.238 72.4107 257.494 71.216C257.75 69.9787 257.92 68.7627 258.006 67.568C257.28 67.2267 256.448 66.9493 255.51 66.736C254.571 66.5227 253.59 66.416 252.566 66.416C249.963 66.416 247.808 67.184 246.102 68.72C244.438 70.256 243.606 72.176 243.606 74.48C243.606 76.1867 244.075 77.5733 245.014 78.64C245.952 79.664 247.232 80.176 248.854 80.176Z" fill="black"/>
</g>
<defs>
<filter id="filter0_d_102_468" x="129.136" y="42.48" width="142.021" height="69.184" filterUnits="userSpaceOnUse" color-interpolation-filters="sRGB">
<feFlood flood-opacity="0" result="BackgroundImageFix"/>
<feColorMatrix in="SourceAlpha" type="matrix" values="0 0 0 0 0 0 0 0 0 0 0 0 0 0 0 0 0 0 127 0" result="hardAlpha"/>
<feOffset dy="4"/>
<feGaussianBlur stdDeviation="2"/>
<feComposite in2="hardAlpha" operator="out"/>
<feColorMatrix type="matrix" values="0 0 0 0 0 0 0 0 0 0 0 0 0 0 0 0 0 0 0.25 0"/>
<feBlend mode="normal" in2="BackgroundImageFix" result="effect1_dropShadow_102_468"/>
<feBlend mode="normal" in="SourceGraphic" in2="effect1_dropShadow_102_468" result="shape"/>
</filter>
</defs>
</svg>
